<mxfile host="65bd71144e">
    <diagram id="rRbzi94DjYtUf3qIHJvX" name="Page-1">
        <mxGraphModel dx="825" dy="256" grid="1" gridSize="10" guides="1" tooltips="1" connect="1" arrows="1" fold="1" page="1" pageScale="1" pageWidth="827" pageHeight="1169" math="0" shadow="0">
            <root>
                <mxCell id="0"/>
                <mxCell id="1" parent="0"/>
                <mxCell id="92" style="edgeStyle=none;html=1;entryX=0.5;entryY=0;entryDx=0;entryDy=0;" parent="1" source="2" edge="1" target="94">
                    <mxGeometry relative="1" as="geometry">
                        <mxPoint x="320" y="180" as="targetPoint"/>
                    </mxGeometry>
                </mxCell>
                <mxCell id="2" value="Start" style="strokeWidth=2;html=1;shape=mxgraph.flowchart.terminator;whiteSpace=wrap;" parent="1" vertex="1">
                    <mxGeometry x="270" y="80" width="100" height="60" as="geometry"/>
                </mxCell>
                <mxCell id="97" style="edgeStyle=none;html=1;entryX=0.5;entryY=0;entryDx=0;entryDy=0;" parent="1" source="94" edge="1" target="156">
                    <mxGeometry relative="1" as="geometry">
                        <mxPoint x="318" y="280" as="targetPoint"/>
                    </mxGeometry>
                </mxCell>
                <mxCell id="94" value="get string" style="shape=parallelogram;perimeter=parallelogramPerimeter;whiteSpace=wrap;html=1;fixedSize=1;" parent="1" vertex="1">
                    <mxGeometry x="261.25" y="180" width="120" height="60" as="geometry"/>
                </mxCell>
                <mxCell id="118" value="&lt;div style=&quot;color: rgb(225 , 228 , 232) ; background-color: rgb(36 , 41 , 46) ; font-family: &amp;#34;comic mono&amp;#34; , &amp;#34;consolas&amp;#34; , &amp;#34;courier new&amp;#34; , monospace , &amp;#34;consolas&amp;#34; , &amp;#34;courier new&amp;#34; , monospace ; font-weight: normal ; font-size: 20px ; line-height: 27px&quot;&gt;&lt;div style=&quot;font-family: &amp;#34;comic mono&amp;#34; , &amp;#34;consolas&amp;#34; , &amp;#34;courier new&amp;#34; , monospace , &amp;#34;consolas&amp;#34; , &amp;#34;courier new&amp;#34; , monospace ; line-height: 27px&quot;&gt;&lt;span style=&quot;color: #f97583&quot;&gt;def&lt;/span&gt; &lt;span style=&quot;color: #b392f0&quot;&gt;convert_string_to_hexidecimal&lt;/span&gt;&lt;/div&gt;&lt;/div&gt;" style="text;whiteSpace=wrap;html=1;" parent="1" vertex="1">
                    <mxGeometry x="400" y="50" width="410" height="40" as="geometry"/>
                </mxCell>
                <mxCell id="155" style="edgeStyle=none;html=1;" parent="1" edge="1">
                    <mxGeometry relative="1" as="geometry">
                        <mxPoint x="320" y="380" as="targetPoint"/>
                        <mxPoint x="320" y="340" as="sourcePoint"/>
                    </mxGeometry>
                </mxCell>
                <mxCell id="158" style="edgeStyle=none;html=1;entryX=0.5;entryY=0;entryDx=0;entryDy=0;fontSize=12;fontColor=#F0F0F0;" parent="1" source="156" target="205" edge="1">
                    <mxGeometry relative="1" as="geometry">
                        <mxPoint x="322.5" y="520" as="targetPoint"/>
                    </mxGeometry>
                </mxCell>
                <mxCell id="156" value="&lt;div style=&quot;line-height: 27px&quot;&gt;&lt;div&gt;    unicode_string = {&lt;/div&gt;&lt;div&gt;&lt;span&gt;&quot; &quot;: &quot;'0x20',&quot;,&lt;/span&gt;&lt;/div&gt;&lt;div&gt;        &quot;!&quot;: &quot;'0x21',&quot;,&lt;/div&gt;&lt;div&gt;...&lt;/div&gt;&lt;div&gt;&lt;div style=&quot;line-height: 27px&quot;&gt;&lt;div&gt;        &quot;~&quot;: &quot;'0x7e',&quot;,&amp;nbsp;}&lt;/div&gt;&lt;/div&gt;&lt;/div&gt;&lt;/div&gt;" style="rounded=0;whiteSpace=wrap;html=1;" parent="1" vertex="1">
                    <mxGeometry x="243.75" y="280" width="155" height="190" as="geometry"/>
                </mxCell>
                <mxCell id="160" style="edgeStyle=none;html=1;fontSize=12;fontColor=#F0F0F0;entryX=0.5;entryY=0;entryDx=0;entryDy=0;exitX=0.5;exitY=1;exitDx=0;exitDy=0;" parent="1" source="205" target="194" edge="1">
                    <mxGeometry relative="1" as="geometry">
                        <mxPoint x="321.625" y="670" as="targetPoint"/>
                        <mxPoint x="321.8506493506493" y="619.3506493506493" as="sourcePoint"/>
                    </mxGeometry>
                </mxCell>
                <mxCell id="176" style="edgeStyle=orthogonalEdgeStyle;rounded=0;html=1;fontSize=12;fontColor=#F0F0F0;exitX=1;exitY=0.5;exitDx=0;exitDy=0;" parent="1" source="205" edge="1">
                    <mxGeometry relative="1" as="geometry">
                        <mxPoint x="530" y="570" as="targetPoint"/>
                        <mxPoint x="372.5" y="570" as="sourcePoint"/>
                    </mxGeometry>
                </mxCell>
                <mxCell id="162" style="edgeStyle=none;html=1;fontSize=12;fontColor=#F0F0F0;entryX=0.5;entryY=0;entryDx=0;entryDy=0;" parent="1" edge="1" target="199">
                    <mxGeometry relative="1" as="geometry">
                        <mxPoint x="320" y="840" as="targetPoint"/>
                        <mxPoint x="320.63247196778275" y="799.1325805432723" as="sourcePoint"/>
                    </mxGeometry>
                </mxCell>
                <mxCell id="166" style="edgeStyle=none;html=1;fontSize=12;fontColor=#F0F0F0;exitX=1;exitY=0.5;exitDx=0;exitDy=0;entryX=0;entryY=0.5;entryDx=0;entryDy=0;" parent="1" source="194" target="203" edge="1">
                    <mxGeometry relative="1" as="geometry">
                        <mxPoint x="440" y="732.5" as="targetPoint"/>
                        <mxPoint x="396" y="735" as="sourcePoint"/>
                    </mxGeometry>
                </mxCell>
                <mxCell id="190" style="edgeStyle=orthogonalEdgeStyle;html=1;entryX=0;entryY=0.5;entryDx=0;entryDy=0;rounded=0;exitX=0;exitY=0.5;exitDx=0;exitDy=0;" parent="1" source="199" target="205" edge="1">
                    <mxGeometry relative="1" as="geometry">
                        <Array as="points">
                            <mxPoint x="229" y="890"/>
                            <mxPoint x="229" y="895"/>
                            <mxPoint x="200" y="895"/>
                            <mxPoint x="200" y="570"/>
                        </Array>
                        <mxPoint x="216.1300000000001" y="895" as="sourcePoint"/>
                        <mxPoint x="272.5" y="570" as="targetPoint"/>
                    </mxGeometry>
                </mxCell>
                <mxCell id="167" value="Yes" style="text;html=1;strokeColor=none;fillColor=none;align=center;verticalAlign=middle;whiteSpace=wrap;rounded=0;labelBackgroundColor=none;fontSize=12;fontColor=#F0F0F0;" parent="1" vertex="1">
                    <mxGeometry x="340" y="800" width="60" height="30" as="geometry"/>
                </mxCell>
                <mxCell id="172" value="Stop" style="strokeWidth=2;html=1;shape=mxgraph.flowchart.terminator;whiteSpace=wrap;" parent="1" vertex="1">
                    <mxGeometry x="600" y="820" width="100" height="60" as="geometry"/>
                </mxCell>
                <mxCell id="177" value="Yes" style="text;html=1;strokeColor=none;fillColor=none;align=center;verticalAlign=middle;whiteSpace=wrap;rounded=0;labelBackgroundColor=none;fontSize=12;fontColor=#F0F0F0;" parent="1" vertex="1">
                    <mxGeometry x="335" y="630" width="40" height="20" as="geometry"/>
                </mxCell>
                <mxCell id="178" value="no" style="text;html=1;strokeColor=none;fillColor=none;align=center;verticalAlign=middle;whiteSpace=wrap;rounded=0;labelBackgroundColor=none;fontSize=12;fontColor=#F0F0F0;" parent="1" vertex="1">
                    <mxGeometry x="378.75" y="530" width="60" height="30" as="geometry"/>
                </mxCell>
                <mxCell id="180" style="edgeStyle=orthogonalEdgeStyle;rounded=0;html=1;entryX=0.5;entryY=0;entryDx=0;entryDy=0;entryPerimeter=0;fontSize=12;fontColor=#F0F0F0;" parent="1" source="179" target="172" edge="1">
                    <mxGeometry relative="1" as="geometry">
                        <Array as="points">
                            <mxPoint x="650" y="570"/>
                        </Array>
                    </mxGeometry>
                </mxCell>
                <mxCell id="179" value="return hexidecimal_string" style="shape=parallelogram;perimeter=parallelogramPerimeter;whiteSpace=wrap;html=1;fixedSize=1;" parent="1" vertex="1">
                    <mxGeometry x="520" y="540" width="120" height="60" as="geometry"/>
                </mxCell>
                <mxCell id="188" style="edgeStyle=orthogonalEdgeStyle;rounded=0;html=1;entryX=0.5;entryY=0;entryDx=0;entryDy=0;fontFamily=Helvetica;exitX=0.5;exitY=1;exitDx=0;exitDy=0;" parent="1" source="203" target="200" edge="1">
                    <mxGeometry relative="1" as="geometry">
                        <mxPoint x="490" y="762.5" as="sourcePoint"/>
                        <mxPoint x="490" y="830" as="targetPoint"/>
                        <Array as="points">
                            <mxPoint x="490" y="763"/>
                        </Array>
                    </mxGeometry>
                </mxCell>
                <mxCell id="191" style="edgeStyle=orthogonalEdgeStyle;rounded=0;html=1;entryX=0.5;entryY=1;entryDx=0;entryDy=0;exitX=1;exitY=0.5;exitDx=0;exitDy=0;" parent="1" source="200" edge="1" target="179">
                    <mxGeometry relative="1" as="geometry">
                        <mxPoint x="580" y="610" as="targetPoint"/>
                        <mxPoint x="520" y="850" as="sourcePoint"/>
                        <Array as="points">
                            <mxPoint x="580" y="850"/>
                        </Array>
                    </mxGeometry>
                </mxCell>
                <mxCell id="189" value="no" style="text;html=1;strokeColor=none;fillColor=none;align=center;verticalAlign=middle;whiteSpace=wrap;rounded=0;labelBackgroundColor=none;fontSize=12;fontColor=#F0F0F0;" parent="1" vertex="1">
                    <mxGeometry x="375" y="702.5" width="38.75" height="20" as="geometry"/>
                </mxCell>
                <mxCell id="194" value="&lt;font color=&quot;#000000&quot;&gt;if single_character in unicode_string:&lt;/font&gt;" style="rhombus;whiteSpace=wrap;html=1;fontColor=#FFFFFF;" vertex="1" parent="1">
                    <mxGeometry x="252.5" y="665" width="137.5" height="135" as="geometry"/>
                </mxCell>
                <mxCell id="199" value="&lt;font color=&quot;#000000&quot;&gt;\hexidecimal_string += unicode_stringe[single_charachter]&lt;/font&gt;" style="rounded=0;whiteSpace=wrap;html=1;fontColor=#FFFFFF;" vertex="1" parent="1">
                    <mxGeometry x="215" y="830" width="210" height="120" as="geometry"/>
                </mxCell>
                <mxCell id="200" value="&lt;font color=&quot;#000000&quot;&gt;Break&lt;/font&gt;" style="rounded=0;whiteSpace=wrap;html=1;fontColor=#FFFFFF;" vertex="1" parent="1">
                    <mxGeometry x="460" y="835" width="60" height="30" as="geometry"/>
                </mxCell>
                <mxCell id="203" value="&lt;span&gt;&lt;font color=&quot;#000000&quot;&gt;hexidecimal_string += &quot;-1&quot;&lt;/font&gt;&lt;/span&gt;" style="rounded=0;whiteSpace=wrap;html=1;fontColor=#FFFFFF;" vertex="1" parent="1">
                    <mxGeometry x="438.75" y="702.5" width="111.25" height="57.5" as="geometry"/>
                </mxCell>
                <mxCell id="205" value="&lt;font color=&quot;#000000&quot;&gt;for single_ character in string:&lt;/font&gt;" style="rhombus;whiteSpace=wrap;html=1;fontColor=#FFFFFF;" vertex="1" parent="1">
                    <mxGeometry x="271.25" y="525" width="100" height="90" as="geometry"/>
                </mxCell>
            </root>
        </mxGraphModel>
    </diagram>
</mxfile>